# xmcd CD database file
#
# Track frame offsets:
#	150
#	18575
#	40212
#	59882
#	87207
#	105077
#	121797
#	146122
#	157862
#	173882
#	192335
#	216405
#	227082
#
# Disc length: 3338 seconds
#
# Revision: 2
# Processed by: cddbd v1.5.1PL0 Copyright (c) Steve Scherf et al.
# Submitted via: CDex 1.51
#
DISCID=b00d080d
DTITLE=Colin LINDEN - Through The Storm Throught The Night
DYEAR=1997
DGENRE=Southern Rock
TTITLE0=Moon Follow Me Home
TTITLE1=When The Carnival Ends
TTITLE2=Out Of The Wilderness
TTITLE3=No Rest For The Wicked
TTITLE4=Reason Of The Rhyme
TTITLE5=The Last Time
TTITLE6=Waiting Is Over
TTITLE7=You'll Be Mine
TTITLE8=Homesick In My Own Backyard
TTITLE9=You Are Here
TTITLE10=Devil Music
TTITLE11=Precious Lord, Take My Hand
TTITLE12=Sad and Beautiful World
EXTD=YEAR: 1997
EXTT0=
EXTT1=
EXTT2=
EXTT3=
EXTT4=
EXTT5=
EXTT6=
EXTT7=
EXTT8=
EXTT9=
EXTT10=
EXTT11=
EXTT12=
PLAYORDER=
